<mxfile host="app.diagrams.net" agent="Mozilla/5.0 (Windows NT 10.0; Win64; x64) AppleWebKit/537.36 (KHTML, like Gecko) Chrome/131.0.0.0 Safari/537.36" version="25.0.1">
  <diagram name="Page-1" id="rLSHi5WIrjQi9VOkxxDJ">
    <mxGraphModel dx="1195" dy="615" grid="1" gridSize="10" guides="1" tooltips="1" connect="1" arrows="1" fold="1" page="1" pageScale="1" pageWidth="827" pageHeight="1169" math="0" shadow="0">
      <root>
        <mxCell id="0" />
        <mxCell id="1" parent="0" />
        <mxCell id="7pIiDDAjAqo5x0pV9Fln-27" style="rounded=0;orthogonalLoop=1;jettySize=auto;html=1;curved=1;labelBackgroundColor=none;" parent="1" source="7pIiDDAjAqo5x0pV9Fln-1" target="7pIiDDAjAqo5x0pV9Fln-2" edge="1">
          <mxGeometry relative="1" as="geometry">
            <Array as="points">
              <mxPoint x="680" y="190" />
            </Array>
          </mxGeometry>
        </mxCell>
        <mxCell id="7pIiDDAjAqo5x0pV9Fln-43" value="A" style="edgeLabel;html=1;align=center;verticalAlign=middle;resizable=0;points=[];labelBackgroundColor=none;" parent="7pIiDDAjAqo5x0pV9Fln-27" vertex="1" connectable="0">
          <mxGeometry x="0.2365" y="5" relative="1" as="geometry">
            <mxPoint x="-13" y="3" as="offset" />
          </mxGeometry>
        </mxCell>
        <mxCell id="7pIiDDAjAqo5x0pV9Fln-1" value="M0" style="ellipse;whiteSpace=wrap;html=1;aspect=fixed;labelBackgroundColor=none;" parent="1" vertex="1">
          <mxGeometry x="640" y="120" width="40" height="40" as="geometry" />
        </mxCell>
        <mxCell id="7pIiDDAjAqo5x0pV9Fln-28" style="rounded=0;orthogonalLoop=1;jettySize=auto;html=1;curved=1;labelBackgroundColor=none;" parent="1" source="7pIiDDAjAqo5x0pV9Fln-2" target="7pIiDDAjAqo5x0pV9Fln-1" edge="1">
          <mxGeometry relative="1" as="geometry">
            <Array as="points">
              <mxPoint x="720" y="150" />
            </Array>
          </mxGeometry>
        </mxCell>
        <mxCell id="7pIiDDAjAqo5x0pV9Fln-42" value="B" style="edgeLabel;html=1;align=center;verticalAlign=middle;resizable=0;points=[];labelBackgroundColor=none;" parent="7pIiDDAjAqo5x0pV9Fln-28" vertex="1" connectable="0">
          <mxGeometry x="0.1467" y="6" relative="1" as="geometry">
            <mxPoint x="10" y="-4" as="offset" />
          </mxGeometry>
        </mxCell>
        <mxCell id="7pIiDDAjAqo5x0pV9Fln-2" value="M2" style="ellipse;whiteSpace=wrap;html=1;aspect=fixed;labelBackgroundColor=none;" parent="1" vertex="1">
          <mxGeometry x="720" y="180" width="40" height="40" as="geometry" />
        </mxCell>
        <mxCell id="7pIiDDAjAqo5x0pV9Fln-3" value="M1" style="ellipse;whiteSpace=wrap;html=1;aspect=fixed;labelBackgroundColor=none;" parent="1" vertex="1">
          <mxGeometry x="520" y="120" width="40" height="40" as="geometry" />
        </mxCell>
        <mxCell id="7pIiDDAjAqo5x0pV9Fln-4" value="M3" style="ellipse;whiteSpace=wrap;html=1;aspect=fixed;labelBackgroundColor=none;" parent="1" vertex="1">
          <mxGeometry x="400" y="120" width="40" height="40" as="geometry" />
        </mxCell>
        <mxCell id="7pIiDDAjAqo5x0pV9Fln-5" value="M6" style="ellipse;whiteSpace=wrap;html=1;aspect=fixed;labelBackgroundColor=none;" parent="1" vertex="1">
          <mxGeometry x="400" y="40" width="40" height="40" as="geometry" />
        </mxCell>
        <mxCell id="7pIiDDAjAqo5x0pV9Fln-16" style="rounded=0;orthogonalLoop=1;jettySize=auto;html=1;labelBackgroundColor=none;" parent="1" source="7pIiDDAjAqo5x0pV9Fln-6" target="7pIiDDAjAqo5x0pV9Fln-5" edge="1">
          <mxGeometry relative="1" as="geometry" />
        </mxCell>
        <mxCell id="7pIiDDAjAqo5x0pV9Fln-48" value="D" style="edgeLabel;html=1;align=center;verticalAlign=middle;resizable=0;points=[];labelBackgroundColor=none;" parent="7pIiDDAjAqo5x0pV9Fln-16" vertex="1" connectable="0">
          <mxGeometry x="0.0208" y="-1" relative="1" as="geometry">
            <mxPoint x="-12" y="-9" as="offset" />
          </mxGeometry>
        </mxCell>
        <mxCell id="7pIiDDAjAqo5x0pV9Fln-17" style="rounded=0;orthogonalLoop=1;jettySize=auto;html=1;labelBackgroundColor=none;" parent="1" source="7pIiDDAjAqo5x0pV9Fln-6" target="7pIiDDAjAqo5x0pV9Fln-7" edge="1">
          <mxGeometry relative="1" as="geometry" />
        </mxCell>
        <mxCell id="7pIiDDAjAqo5x0pV9Fln-47" value="I" style="edgeLabel;html=1;align=center;verticalAlign=middle;resizable=0;points=[];labelBackgroundColor=none;" parent="7pIiDDAjAqo5x0pV9Fln-17" vertex="1" connectable="0">
          <mxGeometry x="-0.0375" relative="1" as="geometry">
            <mxPoint x="-2" y="-10" as="offset" />
          </mxGeometry>
        </mxCell>
        <mxCell id="7pIiDDAjAqo5x0pV9Fln-6" value="M4" style="ellipse;whiteSpace=wrap;html=1;aspect=fixed;labelBackgroundColor=none;" parent="1" vertex="1">
          <mxGeometry x="280" y="120" width="40" height="40" as="geometry" />
        </mxCell>
        <mxCell id="7pIiDDAjAqo5x0pV9Fln-35" style="rounded=0;orthogonalLoop=1;jettySize=auto;html=1;labelBackgroundColor=none;" parent="1" source="7pIiDDAjAqo5x0pV9Fln-7" target="7pIiDDAjAqo5x0pV9Fln-33" edge="1">
          <mxGeometry relative="1" as="geometry" />
        </mxCell>
        <mxCell id="7pIiDDAjAqo5x0pV9Fln-50" value="H" style="edgeLabel;html=1;align=center;verticalAlign=middle;resizable=0;points=[];labelBackgroundColor=none;" parent="7pIiDDAjAqo5x0pV9Fln-35" vertex="1" connectable="0">
          <mxGeometry x="0.0256" y="-1" relative="1" as="geometry">
            <mxPoint x="-9" y="-10" as="offset" />
          </mxGeometry>
        </mxCell>
        <mxCell id="7pIiDDAjAqo5x0pV9Fln-7" value="M5" style="ellipse;whiteSpace=wrap;html=1;aspect=fixed;labelBackgroundColor=none;" parent="1" vertex="1">
          <mxGeometry x="160" y="120" width="40" height="40" as="geometry" />
        </mxCell>
        <mxCell id="7pIiDDAjAqo5x0pV9Fln-8" value="" style="endArrow=classic;html=1;rounded=0;labelBackgroundColor=none;" parent="1" source="7pIiDDAjAqo5x0pV9Fln-1" target="7pIiDDAjAqo5x0pV9Fln-3" edge="1">
          <mxGeometry width="50" height="50" relative="1" as="geometry">
            <mxPoint x="260" y="530" as="sourcePoint" />
            <mxPoint x="310" y="480" as="targetPoint" />
          </mxGeometry>
        </mxCell>
        <mxCell id="7pIiDDAjAqo5x0pV9Fln-44" value="L" style="edgeLabel;html=1;align=center;verticalAlign=middle;resizable=0;points=[];labelBackgroundColor=none;" parent="7pIiDDAjAqo5x0pV9Fln-8" vertex="1" connectable="0">
          <mxGeometry x="0.006" y="2" relative="1" as="geometry">
            <mxPoint y="-12" as="offset" />
          </mxGeometry>
        </mxCell>
        <mxCell id="7pIiDDAjAqo5x0pV9Fln-11" value="" style="endArrow=classic;html=1;rounded=0;labelBackgroundColor=none;" parent="1" source="7pIiDDAjAqo5x0pV9Fln-3" target="7pIiDDAjAqo5x0pV9Fln-4" edge="1">
          <mxGeometry width="50" height="50" relative="1" as="geometry">
            <mxPoint x="366" y="410" as="sourcePoint" />
            <mxPoint x="314" y="462" as="targetPoint" />
          </mxGeometry>
        </mxCell>
        <mxCell id="7pIiDDAjAqo5x0pV9Fln-45" value="G" style="edgeLabel;html=1;align=center;verticalAlign=middle;resizable=0;points=[];labelBackgroundColor=none;" parent="7pIiDDAjAqo5x0pV9Fln-11" vertex="1" connectable="0">
          <mxGeometry x="0.006" relative="1" as="geometry">
            <mxPoint y="-10" as="offset" />
          </mxGeometry>
        </mxCell>
        <mxCell id="7pIiDDAjAqo5x0pV9Fln-12" value="" style="endArrow=classic;html=1;rounded=0;labelBackgroundColor=none;" parent="1" source="7pIiDDAjAqo5x0pV9Fln-4" target="7pIiDDAjAqo5x0pV9Fln-6" edge="1">
          <mxGeometry width="50" height="50" relative="1" as="geometry">
            <mxPoint x="284" y="364" as="sourcePoint" />
            <mxPoint x="310" y="410" as="targetPoint" />
          </mxGeometry>
        </mxCell>
        <mxCell id="7pIiDDAjAqo5x0pV9Fln-46" value="J" style="edgeLabel;html=1;align=center;verticalAlign=middle;resizable=0;points=[];labelBackgroundColor=none;" parent="7pIiDDAjAqo5x0pV9Fln-12" vertex="1" connectable="0">
          <mxGeometry x="0.006" y="2" relative="1" as="geometry">
            <mxPoint y="-12" as="offset" />
          </mxGeometry>
        </mxCell>
        <mxCell id="7pIiDDAjAqo5x0pV9Fln-20" value="" style="endArrow=classic;html=1;rounded=0;curved=1;labelBackgroundColor=none;" parent="1" source="7pIiDDAjAqo5x0pV9Fln-5" target="7pIiDDAjAqo5x0pV9Fln-3" edge="1">
          <mxGeometry width="50" height="50" relative="1" as="geometry">
            <mxPoint x="182" y="428" as="sourcePoint" />
            <mxPoint x="130" y="480" as="targetPoint" />
          </mxGeometry>
        </mxCell>
        <mxCell id="7pIiDDAjAqo5x0pV9Fln-49" value="E" style="edgeLabel;html=1;align=center;verticalAlign=middle;resizable=0;points=[];labelBackgroundColor=none;" parent="7pIiDDAjAqo5x0pV9Fln-20" vertex="1" connectable="0">
          <mxGeometry x="0.1158" y="-19" relative="1" as="geometry">
            <mxPoint x="15" y="-29" as="offset" />
          </mxGeometry>
        </mxCell>
        <mxCell id="7pIiDDAjAqo5x0pV9Fln-29" style="rounded=0;orthogonalLoop=1;jettySize=auto;html=1;labelBackgroundColor=none;" parent="1" source="7pIiDDAjAqo5x0pV9Fln-23" target="7pIiDDAjAqo5x0pV9Fln-2" edge="1">
          <mxGeometry relative="1" as="geometry" />
        </mxCell>
        <mxCell id="7pIiDDAjAqo5x0pV9Fln-56" value="E" style="edgeLabel;html=1;align=center;verticalAlign=middle;resizable=0;points=[];labelBackgroundColor=none;" parent="7pIiDDAjAqo5x0pV9Fln-29" vertex="1" connectable="0">
          <mxGeometry x="0.011" y="-1" relative="1" as="geometry">
            <mxPoint x="-11" y="-9" as="offset" />
          </mxGeometry>
        </mxCell>
        <mxCell id="7pIiDDAjAqo5x0pV9Fln-23" value="M13" style="ellipse;whiteSpace=wrap;html=1;aspect=fixed;labelBackgroundColor=none;" parent="1" vertex="1">
          <mxGeometry x="640" y="240" width="40" height="40" as="geometry" />
        </mxCell>
        <mxCell id="7pIiDDAjAqo5x0pV9Fln-24" value="M12" style="ellipse;whiteSpace=wrap;html=1;aspect=fixed;labelBackgroundColor=none;" parent="1" vertex="1">
          <mxGeometry x="400" y="320" width="40" height="40" as="geometry" />
        </mxCell>
        <mxCell id="7pIiDDAjAqo5x0pV9Fln-30" style="rounded=0;orthogonalLoop=1;jettySize=auto;html=1;labelBackgroundColor=none;" parent="1" source="7pIiDDAjAqo5x0pV9Fln-25" target="7pIiDDAjAqo5x0pV9Fln-23" edge="1">
          <mxGeometry relative="1" as="geometry" />
        </mxCell>
        <mxCell id="7pIiDDAjAqo5x0pV9Fln-54" value="D" style="edgeLabel;html=1;align=center;verticalAlign=middle;resizable=0;points=[];labelBackgroundColor=none;" parent="7pIiDDAjAqo5x0pV9Fln-30" vertex="1" connectable="0">
          <mxGeometry x="0.0167" y="-2" relative="1" as="geometry">
            <mxPoint x="-1" y="-12" as="offset" />
          </mxGeometry>
        </mxCell>
        <mxCell id="7pIiDDAjAqo5x0pV9Fln-31" style="rounded=0;orthogonalLoop=1;jettySize=auto;html=1;labelBackgroundColor=none;" parent="1" source="7pIiDDAjAqo5x0pV9Fln-25" target="7pIiDDAjAqo5x0pV9Fln-24" edge="1">
          <mxGeometry relative="1" as="geometry" />
        </mxCell>
        <mxCell id="7pIiDDAjAqo5x0pV9Fln-25" value="M11" style="ellipse;whiteSpace=wrap;html=1;aspect=fixed;labelBackgroundColor=none;" parent="1" vertex="1">
          <mxGeometry x="520" y="240" width="40" height="40" as="geometry" />
        </mxCell>
        <mxCell id="7pIiDDAjAqo5x0pV9Fln-26" value="" style="endArrow=classic;html=1;rounded=0;labelBackgroundColor=none;" parent="1" source="7pIiDDAjAqo5x0pV9Fln-32" target="7pIiDDAjAqo5x0pV9Fln-25" edge="1">
          <mxGeometry width="50" height="50" relative="1" as="geometry">
            <mxPoint x="670" y="540" as="sourcePoint" />
            <mxPoint x="720" y="490" as="targetPoint" />
          </mxGeometry>
        </mxCell>
        <mxCell id="7pIiDDAjAqo5x0pV9Fln-53" value="C" style="edgeLabel;html=1;align=center;verticalAlign=middle;resizable=0;points=[];labelBackgroundColor=none;" parent="7pIiDDAjAqo5x0pV9Fln-26" vertex="1" connectable="0">
          <mxGeometry x="0.0167" relative="1" as="geometry">
            <mxPoint x="-1" y="-10" as="offset" />
          </mxGeometry>
        </mxCell>
        <mxCell id="7pIiDDAjAqo5x0pV9Fln-32" value="M10" style="ellipse;whiteSpace=wrap;html=1;aspect=fixed;labelBackgroundColor=none;" parent="1" vertex="1">
          <mxGeometry x="400" y="240" width="40" height="40" as="geometry" />
        </mxCell>
        <mxCell id="7pIiDDAjAqo5x0pV9Fln-39" value="K" style="rounded=0;orthogonalLoop=1;jettySize=auto;html=1;curved=1;labelBackgroundColor=none;" parent="1" source="7pIiDDAjAqo5x0pV9Fln-33" target="7pIiDDAjAqo5x0pV9Fln-34" edge="1">
          <mxGeometry relative="1" as="geometry">
            <Array as="points">
              <mxPoint x="160" y="210" />
            </Array>
          </mxGeometry>
        </mxCell>
        <mxCell id="7pIiDDAjAqo5x0pV9Fln-33" value="M7" style="ellipse;whiteSpace=wrap;html=1;aspect=fixed;labelBackgroundColor=none;" parent="1" vertex="1">
          <mxGeometry x="80" y="180" width="40" height="40" as="geometry" />
        </mxCell>
        <mxCell id="7pIiDDAjAqo5x0pV9Fln-40" value="L" style="rounded=0;orthogonalLoop=1;jettySize=auto;html=1;curved=1;labelBackgroundColor=none;" parent="1" source="7pIiDDAjAqo5x0pV9Fln-34" target="7pIiDDAjAqo5x0pV9Fln-33" edge="1">
          <mxGeometry relative="1" as="geometry">
            <Array as="points">
              <mxPoint x="120" y="250" />
            </Array>
          </mxGeometry>
        </mxCell>
        <mxCell id="7pIiDDAjAqo5x0pV9Fln-41" style="rounded=0;orthogonalLoop=1;jettySize=auto;html=1;labelBackgroundColor=none;" parent="1" source="7pIiDDAjAqo5x0pV9Fln-34" target="7pIiDDAjAqo5x0pV9Fln-36" edge="1">
          <mxGeometry relative="1" as="geometry" />
        </mxCell>
        <mxCell id="7pIiDDAjAqo5x0pV9Fln-51" value="A" style="edgeLabel;html=1;align=center;verticalAlign=middle;resizable=0;points=[];labelBackgroundColor=none;" parent="7pIiDDAjAqo5x0pV9Fln-41" vertex="1" connectable="0">
          <mxGeometry x="-0.0458" y="-2" relative="1" as="geometry">
            <mxPoint x="2" y="-12" as="offset" />
          </mxGeometry>
        </mxCell>
        <mxCell id="7pIiDDAjAqo5x0pV9Fln-34" value="M8" style="ellipse;whiteSpace=wrap;html=1;aspect=fixed;labelBackgroundColor=none;" parent="1" vertex="1">
          <mxGeometry x="160" y="240" width="40" height="40" as="geometry" />
        </mxCell>
        <mxCell id="7pIiDDAjAqo5x0pV9Fln-37" style="rounded=0;orthogonalLoop=1;jettySize=auto;html=1;labelBackgroundColor=none;" parent="1" source="7pIiDDAjAqo5x0pV9Fln-36" target="7pIiDDAjAqo5x0pV9Fln-32" edge="1">
          <mxGeometry relative="1" as="geometry" />
        </mxCell>
        <mxCell id="7pIiDDAjAqo5x0pV9Fln-52" value="F" style="edgeLabel;html=1;align=center;verticalAlign=middle;resizable=0;points=[];labelBackgroundColor=none;" parent="7pIiDDAjAqo5x0pV9Fln-37" vertex="1" connectable="0">
          <mxGeometry x="0.0167" relative="1" as="geometry">
            <mxPoint x="-1" y="-10" as="offset" />
          </mxGeometry>
        </mxCell>
        <mxCell id="7pIiDDAjAqo5x0pV9Fln-38" style="rounded=0;orthogonalLoop=1;jettySize=auto;html=1;curved=1;labelBackgroundColor=none;" parent="1" source="7pIiDDAjAqo5x0pV9Fln-24" target="7pIiDDAjAqo5x0pV9Fln-36" edge="1">
          <mxGeometry relative="1" as="geometry" />
        </mxCell>
        <mxCell id="7pIiDDAjAqo5x0pV9Fln-55" value="H" style="edgeLabel;html=1;align=center;verticalAlign=middle;resizable=0;points=[];labelBackgroundColor=none;" parent="7pIiDDAjAqo5x0pV9Fln-38" vertex="1" connectable="0">
          <mxGeometry x="0.0983" y="-18" relative="1" as="geometry">
            <mxPoint x="-5" y="28" as="offset" />
          </mxGeometry>
        </mxCell>
        <mxCell id="7pIiDDAjAqo5x0pV9Fln-36" value="M9" style="ellipse;whiteSpace=wrap;html=1;aspect=fixed;labelBackgroundColor=none;" parent="1" vertex="1">
          <mxGeometry x="280" y="240" width="40" height="40" as="geometry" />
        </mxCell>
      </root>
    </mxGraphModel>
  </diagram>
</mxfile>
